<svg height="1024" width="640" xmlns="http://www.w3.org/2000/svg"><path d="M512 192c-70.6 0-128 57.3-128 128 0 47.2 26 88 64 110.3V448s0 128-128 128c-53 0-94.7 11.4-128 28.8V302.3c38.2-22.2 64-63 64-110.3 0-70.7-57.3-128-128-128S0 121.3 0 192c0 47.2 25.8 88 64 110.3v419.4C25.8 744 0 784.8 0 832c0 70.6 57.3 128 128 128s128-57.4 128-128c0-33.5-13.2-63.8-34.3-86.6 18.7-23 49-41.4 98.3-41.4 254 0 256-256 256-256v-17.7c38-22.2 64-63 64-110.3 0-70.7-57.4-128-128-128zm-384-64c35.4 0 64 28.6 64 64s-28.6 64-64 64-64-28.6-64-64 28.6-64 64-64zm0 768c-35.4 0-64-28.6-64-64 0-35.3 28.6-64 64-64s64 28.7 64 64c0 35.4-28.6 64-64 64zm384-512c-35.4 0-64-28.6-64-64s28.6-64 64-64 64 28.6 64 64-28.6 64-64 64z"/></svg>